# xmcd
#
# Track frame offsets: 
#        183
#        17743
#        20220
#        40385
#        57393
#        73695
#        75648
#        96478
#        112408
#        141273
#        163370
#        179143
#        185805
#        199278
#        220243
#        222635
#
# Disc length: 3166 seconds
#
# Revision: 4
# Processed by: cddbd v1.5.2PL0 Copyright (c) Steve Scherf et al.
# Submitted via: ExactAudioCopy v0.99pb5
#
DISCID=140c5c10
DTITLE=Miriam Makeba - Sing me a song
DYEAR=1993
DGENRE=Blues
TTITLE0=Sing Me A Song
TTITLE1=Bass Rap
TTITLE2=Ndiarabi
TTITLE3=Moody Moods
TTITLE4=Thula Mntanami
TTITLE5=Generation Rap
TTITLE6=Known Unsung Hero
TTITLE7=I Long To Return
TTITLE8=Serenade Me
TTITLE9=Bambarana
TTITLE10=Choo Choo Train - Shuku Shuku
TTITLE11=Ivory Song
TTITLE12=My People
TTITLE13=Lakutshona Ilanga
TTITLE14=Good Grunge
TTITLE15=Pendre un Enfant
EXTD=
EXTT0=
EXTT1=
EXTT2=
EXTT3=
EXTT4=
EXTT5=
EXTT6=
EXTT7=
EXTT8=
EXTT9=
EXTT10=
EXTT11=
EXTT12=
EXTT13=
EXTT14=
EXTT15=
PLAYORDER=
